<?xml version="1.0" encoding="UTF-8"?>
<svg version="1.1" xmlns="http://www.w3.org/2000/svg" width="500" height="500">
<path d="M0 0 C0.84691406 0.49757813 1.69382812 0.99515625 2.56640625 1.5078125 C3.49259766 2.18457031 3.49259766 2.18457031 4.4375 2.875 C4.4375 3.535 4.4375 4.195 4.4375 4.875 C3.0390625 6.06640625 3.0390625 6.06640625 1.0625 7.4375 C-16.65916048 20.34586998 -28.45182826 37.31149085 -39.5625 55.875 C-40.14773437 56.83921875 -40.73296875 57.8034375 -41.3359375 58.796875 C-44.5345024 64.15193841 -47.48794875 69.59774912 -50.26171875 75.18359375 C-50.60655807 75.87559875 -50.9513974 76.56760376 -51.3066864 77.28057861 C-54.51093559 83.73119705 -57.63327148 90.22048678 -60.75219727 96.71264648 C-82.2326122 141.40296128 -82.2326122 141.40296128 -97.5625 159.875 C-98.27792969 160.74898437 -98.99335938 161.62296875 -99.73046875 162.5234375 C-118.67767074 184.59244602 -145.523403 193.10793435 -172.92431641 199.66748047 C-182.29028697 201.95107801 -192.45870991 204.47247328 -200.5625 209.875 C-210.08061993 234.90663925 -208.53071802 265.803162 -197.73828125 290.1015625 C-187.96428281 311.00468532 -172.31836073 328.15019853 -150.4375 336.4375 C-139.83550482 339.78798216 -128.92610449 340.3429397 -118.5625 335.875 C-103.6531885 327.79606273 -97.17936192 314.34630237 -89.96264648 299.71044922 C-86.79039818 293.28260947 -83.49522836 286.92151119 -80.1875 280.5625 C-78.98028593 278.23837593 -77.77320607 275.91418288 -76.56640625 273.58984375 C-76.09374077 272.67952141 -76.09374077 272.67952141 -75.61152649 271.75080872 C-71.833864 264.47373896 -68.06236155 257.19351719 -64.30316162 249.90689087 C-63.5311717 248.4116828 -62.75813833 246.91701291 -61.98394775 245.42294312 C-46.9512875 217.27452384 -46.9512875 217.27452384 -48.5625 186.1875 C-52.07219258 171.76552236 -53.63076191 159.87487599 -47.5625 145.875 C-47.13517578 144.88669189 -47.13517578 144.88669189 -46.69921875 143.87841797 C-37.27307449 122.39320953 -24.88532202 102.43828591 -12.33642578 82.671875 C-10.68432078 80.06706976 -9.04126256 77.45686586 -7.40234375 74.84375 C-1.57864326 65.56809037 4.34100797 56.35874259 10.33837891 47.19433594 C10.85964355 46.39672852 11.3809082 45.59912109 11.91796875 44.77734375 C12.38098389 44.07085693 12.84399902 43.36437012 13.32104492 42.63647461 C14.48156793 40.87110992 14.48156793 40.87110992 15.4375 38.875 C18.97993452 40.24091169 22.36377929 41.78431484 25.75 43.5 C26.63300781 43.94601563 27.51601563 44.39203125 28.42578125 44.8515625 C29.42158203 45.35816406 29.42158203 45.35816406 30.4375 45.875 C29.11033827 50.24225012 27.40024862 54.02116639 25.1640625 57.99609375 C24.84424911 58.56894608 24.52443573 59.1417984 24.19493103 59.73200989 C23.51011477 60.95819315 22.82318248 62.18319663 22.13430786 63.40710449 C20.30789654 66.65398861 18.49935695 69.91077876 16.69140625 73.16796875 C16.32790573 73.82241974 15.96440521 74.47687073 15.58988953 75.15115356 C11.27863655 82.93442603 7.18435978 90.82750484 3.10546875 98.734375 C1.45545837 101.93174942 -0.22149598 105.1095839 -1.94921875 108.265625 C-21.71012077 142.76747047 -21.71012077 142.76747047 -24.7734375 180.7890625 C-23.30721403 184.85195654 -21.6045553 188.79428441 -19.875 192.75 C-15.96916316 202.04961151 -16.68358902 211.39944754 -20.125 220.71875 C-20.52532188 221.82449371 -20.52532188 221.82449371 -20.93373108 222.95257568 C-23.9544318 231.1560244 -27.42377562 239.15136509 -31 247.125 C-31.34299133 247.89481201 -31.68598267 248.66462402 -32.03936768 249.45776367 C-38.46352341 263.84899624 -45.53674789 277.82625991 -52.91845703 291.74511719 C-55.30849084 296.29519641 -57.59752146 300.892828 -59.875 305.5 C-63.3753101 312.55415268 -66.96761192 319.55230427 -70.67089844 326.50219727 C-73.02088521 330.91642339 -75.31164581 335.35256055 -77.54296875 339.828125 C-87.70612719 360.0753323 -87.70612719 360.0753323 -95.5625 366.875 C-96.13097656 367.38546875 -96.69945312 367.8959375 -97.28515625 368.421875 C-107.90435382 376.95740024 -122.52051447 377.88561273 -135.5625 376.875 C-162.76946881 373.42372366 -190.02451366 357.62221861 -206.94677734 336.11572266 C-229.27007032 306.01935704 -234.22158988 268.28665519 -229.48168945 231.77661133 C-224.11305853 195.95399294 -210.64789344 159.65385113 -191.5625 128.875 C-191.00433594 127.95589844 -190.44617188 127.03679687 -189.87109375 126.08984375 C-177.91221585 106.8058063 -163.40338891 89.74497203 -147.5 73.625 C-146.93958008 73.05152832 -146.37916016 72.47805664 -145.80175781 71.88720703 C-144.42747393 70.50996315 -142.99927008 69.18692555 -141.5625 67.875 C-140.9025 67.875 -140.2425 67.875 -139.5625 67.875 C-139.5625 67.215 -139.5625 66.555 -139.5625 65.875 C-137.83203125 64.28125 -137.83203125 64.28125 -135.375 62.375 C-134.46621094 61.66601562 -133.55742187 60.95703125 -132.62109375 60.2265625 C-131.61175781 59.45054688 -130.60242188 58.67453125 -129.5625 57.875 C-128.46983935 57.0289205 -127.37739609 56.18256018 -126.28515625 55.3359375 C-120.41656143 50.79698635 -114.5117703 46.30778963 -108.5625 41.875 C-130.40301856 50.35602611 -152.49680281 65.79167604 -167.71875 83.78125 C-169.71693274 86.05037277 -171.83279584 88.14217129 -174 90.25 C-178.62013426 94.83124424 -182.61444723 99.71055774 -186.5625 104.875 C-187.48957228 106.06120655 -188.41665639 107.24740386 -189.34375 108.43359375 C-202.38831659 125.27829401 -212.02158481 143.33747849 -221.28173828 162.45996094 C-221.65884949 163.23138428 -222.03596069 164.00280762 -222.42449951 164.79760742 C-223.13428585 166.25037311 -223.83745426 167.70639947 -224.53253174 169.16625977 C-226.72326935 173.6354677 -229.23996363 177.16340278 -232.5625 180.875 C-241.8176488 172.90752408 -243.85975628 153.53280267 -244.79443359 142.01757812 C-246.54150703 109.19243809 -234.10802797 81.13986645 -212.5625 56.875 C-206.46044616 50.16858939 -199.664636 44.48997732 -192.5625 38.875 C-191.63308594 38.10542969 -190.70367187 37.33585937 -189.74609375 36.54296875 C-162.43094436 14.49853919 -128.49981467 0.79370676 -94.5625 -7.125 C-93.21575195 -7.44259277 -93.21575195 -7.44259277 -91.84179688 -7.76660156 C-62.7786581 -14.3208691 -26.32555276 -15.73765439 0 0 Z " fill="#69B550" transform="translate(284.5625,50.125)"/>
<path d="M0 0 C23.09083144 7.05358225 42.77115972 24.81754409 60 41 C60.68578125 41.62003906 61.3715625 42.24007812 62.078125 42.87890625 C84.25934146 63.70874608 100.26718643 94.2512686 109 123 C109.23799316 123.76119141 109.47598633 124.52238281 109.72119141 125.30664062 C113.25656607 136.70412014 115.52368803 148.16268543 117 160 C117.09571289 160.76030518 117.19142578 161.52061035 117.29003906 162.30395508 C123.5351241 217.38493358 105.53743436 272.304882 71.70751953 315.65625 C61.52745404 328.4071939 49.9753041 340.09733219 37 350 C36.4529541 350.42345703 35.9059082 350.84691406 35.34228516 351.28320312 C-9.54863848 385.90089181 -66.82602935 401.12827854 -123.09375 394.125 C-127.08936853 393.53305651 -131.0451736 392.82009478 -135 392 C-135.85899902 391.82355957 -136.71799805 391.64711914 -137.60302734 391.46533203 C-142.75536312 390.38944484 -147.88260415 389.23092428 -153 388 C-152.38868903 384.11842897 -151.21183083 381.06261646 -149.44311523 377.56152344 C-148.90843124 376.49560974 -148.37374725 375.42969604 -147.82286072 374.33148193 C-146.94954857 372.612789 -146.94954857 372.612789 -146.05859375 370.859375 C-145.45083264 369.65200909 -144.84367083 368.44434135 -144.23707581 367.23638916 C-142.63583551 364.0510134 -141.02780051 360.86912021 -139.41790771 357.68811035 C-136.56117293 352.04079936 -133.71600405 346.3876492 -130.87109375 340.734375 C-130.56475384 340.12620438 -130.25841393 339.51803375 -129.94279099 338.89143372 C-126.07258139 331.20422442 -122.28485298 323.49034447 -118.66033936 315.68449402 C-115.99048319 309.94000892 -113.17133281 304.27863356 -110.32177734 298.62158203 C-108.00754125 294.02580585 -105.72343119 289.41529938 -103.43972778 284.80429077 C-101.15609609 280.1955933 -98.86562828 275.59030631 -96.57495117 270.98510742 C-95.40674894 268.6336534 -94.24070682 266.28112491 -93.0769043 263.92749023 C-62.20269373 201.51140065 -62.20269373 201.51140065 -45.66015625 194.859375 C-41.02309126 193.36135107 -36.29453673 192.22842807 -31.55078125 191.125 C-14.46191409 185.71070545 -5.18181719 165.66125547 2.5 150.9375 C14.78957691 127.01900269 26.19706284 102.60854846 36.8359375 77.9140625 C38.73793652 73.52365725 40.81662137 69.25708984 43 65 C46.88327642 66.09528309 50.22713194 67.60602253 53.72265625 69.58203125 C54.52582275 70.03425049 55.32898926 70.48646973 56.15649414 70.95239258 C56.76485107 71.29810303 57.37320801 71.64381348 58 72 C17.71164286 192.14412186 17.71164286 192.14412186 -7 207 C-10.80405809 208.87434947 -14.68924688 210.48664106 -18.625 212.0625 C-25.16312772 214.68545307 -30.89935774 217.24693853 -36.35693359 221.76342773 C-38 223 -38 223 -41 224 C-42.11203424 225.82760542 -42.11203424 225.82760542 -43 228 C-43.73424111 229.39406248 -44.47280505 230.78585364 -45.21484375 232.17578125 C-49.92953929 241.05593007 -54.52697964 249.96675391 -58.8125 259.0625 C-64.34842985 270.80547697 -70.17658971 282.39771124 -76 294 C-82.74519572 307.4420694 -89.43188351 320.89859922 -95.859375 334.49609375 C-98.80082348 340.7168598 -101.88454804 346.86479256 -105 353 C-51.28978043 354.27476787 -5.38624877 339.35139587 35.75 304.5625 C36.32290771 304.07845703 36.89581543 303.59441406 37.48608398 303.09570312 C40.00489443 300.91669911 42.18862728 298.76291503 44.265625 296.15234375 C44.83796875 295.44207031 45.4103125 294.73179687 46 294 C46.66 294 47.32 294 48 294 C48.268125 293.40960938 48.53625 292.81921875 48.8125 292.2109375 C50.01072058 289.98003997 51.27008995 288.46302942 53 286.625 C83.061701 252.76668666 98.9285104 204.24880355 96.87597656 159.28295898 C93.75429777 110.786709 75.51527519 68.17804854 42 33 C41.38511719 32.34386719 40.77023437 31.68773438 40.13671875 31.01171875 C29.05303847 19.50479531 15.47944556 10.65067116 1.94921875 2.3125 C0.98435547 1.6628125 0.98435547 1.6628125 0 1 C0 0.67 0 0.34 0 0 Z " fill="#F38635" transform="translate(342,66)"/>
<path d="M0 0 C3.12516547 1.47881725 6.2501041 2.95811322 9.375 4.4375 C10.26445312 4.85837891 11.15390625 5.27925781 12.0703125 5.71289062 C13.34648437 6.31713867 13.34648437 6.31713867 14.6484375 6.93359375 C15.43395996 7.30540771 16.21948242 7.67722168 17.02880859 8.06030273 C18.358629 8.69424858 19.68233248 9.34116624 21 10 C19.41909438 15.20866798 17.22462701 19.98262596 14.875 24.875 C14.52179688 25.62007812 14.16859375 26.36515625 13.8046875 27.1328125 C9.98431252 35.1449878 5.98207265 43.06744197 2 51 C-1.12783841 57.23347827 -4.25472953 63.46742942 -7.37918091 69.7026062 C-8.34628865 71.63227103 -9.31380713 73.56173007 -10.28170776 75.49099731 C-19.2805224 93.43084617 -19.2805224 93.43084617 -27.7668457 111.61743164 C-30.18690905 116.86187627 -32.62647149 121.31323574 -38 124 C-42.73177192 124.39431433 -45.09400722 124.45299639 -49.375 122.3125 C-52.24761657 119.78186159 -53.25416647 118.72916765 -54 115 C-53.75578649 107.02778561 -51.12751608 101.32778147 -47.49609375 94.30859375 C-46.93938492 93.20508072 -46.38267609 92.10156769 -45.80909729 90.96461487 C-44.03167365 87.44874611 -42.23507671 83.94310045 -40.4375 80.4375 C-39.25586197 78.10938306 -38.07551118 75.7806123 -36.89648438 73.45117188 C-34.62332347 68.96441277 -32.34387013 64.48095888 -30.05786133 60.00073242 C-24.19693553 48.50949124 -18.46683268 36.96759405 -12.9375 25.3125 C-8.8505533 16.74115684 -4.66950491 8.27028511 0 0 Z " fill="#F28636" transform="translate(325,101)"/>
<path d="M0 0 C4.84286815 1.49359485 9.31350896 3.45033567 13.875 5.625 C14.56335938 5.94984375 15.25171875 6.2746875 15.9609375 6.609375 C17.64205219 7.40323472 19.32122921 8.20119558 21 9 C20.38550765 12.82557113 19.24899916 15.91460772 17.55859375 19.39453125 C17.05650391 20.43416016 16.55441406 21.47378906 16.03710938 22.54492188 C15.50923828 23.62322266 14.98136719 24.70152344 14.4375 25.8125 C13.93669922 26.84826172 13.43589844 27.88402344 12.91992188 28.95117188 C10.07788607 34.81085479 7.18339518 40.64288854 4.26464844 46.46459961 C1.25369848 52.47838207 -1.7352153 58.50256319 -4.70595169 64.53629971 C-7.43325642 70.07551425 -10.17182779 75.60909075 -12.91483593 81.14054489 C-14.74632595 84.835093 -16.5731288 88.53182366 -18.39038086 92.23339844 C-20.172148 95.86217063 -21.96561849 99.48493425 -23.76729774 103.10385895 C-24.44568044 104.4716526 -25.11985733 105.84154107 -25.78960228 107.2135849 C-26.72252827 109.12309101 -27.67029317 111.02451773 -28.62182617 112.92480469 C-29.15507004 114.00461609 -29.6883139 115.08442749 -30.23771667 116.19696045 C-32.15551697 119.24736102 -34.03138855 120.98387713 -37 123 C-41.15618026 123.90382687 -44.94132638 123.41426359 -48.875 121.875 C-51.66380195 119.41429239 -52.7996613 117.53433061 -54 114 C-53.66455909 108.16781588 -52.29897336 103.76701965 -49.5703125 98.58984375 C-49.22048309 97.9010463 -48.87065369 97.21224884 -48.51022339 96.50257874 C-47.39312819 94.30820849 -46.25997507 92.1226671 -45.125 89.9375 C-43.66448956 87.09488479 -42.21070993 84.24885622 -40.7578125 81.40234375 C-40.37952301 80.66363037 -40.00123352 79.92491699 -39.61148071 79.16381836 C-36.54425477 73.14547145 -33.61673513 67.06620807 -30.71875 60.96484375 C-25.275613 49.5101014 -19.65187956 38.15055991 -13.97119141 26.81201172 C-12.33842377 23.55197061 -10.71008508 20.28974107 -9.08203125 17.02734375 C-8.04192399 14.94778794 -7.00156949 12.86835578 -5.9609375 10.7890625 C-5.47563568 9.81643463 -4.99033386 8.84380676 -4.49032593 7.84170532 C-4.04540802 6.95502167 -3.60049011 6.06833801 -3.14208984 5.15478516 C-2.75113129 4.37366364 -2.36017273 3.59254211 -1.95736694 2.78775024 C-1 1 -1 1 0 0 Z " fill="#F38635" transform="translate(354,116)"/>
<path d="M0 0 C23.09083144 7.05358225 42.77115972 24.81754409 60 41 C60.68578125 41.62003906 61.3715625 42.24007812 62.078125 42.87890625 C69.353675 49.71119795 75.09745817 57.99460189 81 66 C81.70382812 66.94230469 82.40765625 67.88460937 83.1328125 68.85546875 C86.20772764 73.17074822 88 76.52037651 88 82 C87.375 84.375 87.375 84.375 86 86 C83.375 86.75 83.375 86.75 81 87 C81 85.68 81 84.36 81 83 C80.01 83 79.02 83 78 83 C77.44054687 81.92105469 76.88109375 80.84210938 76.3046875 79.73046875 C67.09821423 62.36504734 55.74254822 47.03143061 42 33 C41.36835938 32.3296875 40.73671875 31.659375 40.0859375 30.96875 C29.04992199 19.46200397 15.44854908 10.63163081 1.94921875 2.3125 C1.30597656 1.879375 0.66273438 1.44625 0 1 C0 0.67 0 0.34 0 0 Z " fill="#EE883B" transform="translate(342,66)"/>
<path d="M0 0 C17.92676012 5.47610757 33.92694705 17.99580612 48 30 C49.22804918 31.02217739 50.45700251 32.04327122 51.6875 33.0625 C52.450625 33.701875 53.21375 34.34125 54 35 C53.34 35.99 52.68 36.98 52 38 C52.31506627 41.14221967 52.31506627 41.14221967 53 44 C50.33442294 41.34425902 47.68159862 38.67837815 45.0546875 35.984375 C32.04217475 22.70246895 17.77043243 12.06252041 1.94921875 2.3125 C1.30597656 1.879375 0.66273438 1.44625 0 1 C0 0.67 0 0.34 0 0 Z " fill="#E38A45" transform="translate(342,66)"/>
<path d="M0 0 C1.31022265 3.93066795 0.35847355 5.29062026 -1.16796875 9.1015625 C-1.64943359 10.31457031 -2.13089844 11.52757812 -2.62695312 12.77734375 C-3.14707163 14.0599217 -3.66725435 15.34247362 -4.1875 16.625 C-4.68897451 17.88378684 -5.18963434 19.14289856 -5.68945312 20.40234375 C-8.32612507 26.99924818 -11.06077836 33.53230942 -14 40 C-15.39622936 35.69110673 -13.99681981 33.99363961 -12 30 C-11.74803177 26.74899636 -11.74803177 26.74899636 -12 24 C-11.34 24 -10.68 24 -10 24 C-9.67 22.68 -9.34 21.36 -9 20 C-8.34 20 -7.68 20 -7 20 C-6.89042969 19.35933594 -6.78085937 18.71867187 -6.66796875 18.05859375 C-5.43052012 11.30795933 -3.84649412 5.76974118 0 0 Z " fill="#E68E48" transform="translate(382,183)"/>
<path d="M0 0 C0 3 0 3 -1 5 C-1.804375 5.4125 -2.60875 5.825 -3.4375 6.25 C-6.69295685 8.47323882 -6.97150061 10.28157912 -8 14 C-10.19191368 16.19191368 -11.11477408 16.27869352 -14 17 C-14.66 17.66 -15.32 18.32 -16 19 C-16.33 18.34 -16.66 17.68 -17 17 C-17.99 17 -18.98 17 -20 17 C-17.79211695 15.10364017 -15.58370715 13.20789959 -13.375 11.3125 C-12.75753906 10.78205078 -12.14007813 10.25160156 -11.50390625 9.70507812 C-7.69535927 6.43774572 -3.86273898 3.20310202 0 0 Z " fill="#E68943" transform="translate(383,366)"/>
<path d="M0 0 C1.32 0.66 2.64 1.32 4 2 C4.33 1.34 4.66 0.68 5 0 C4.44636539 8.02770189 2.34312056 15.33854067 0 23 C-0.66 23 -1.32 23 -2 23 C-2 21.68 -2 20.36 -2 19 C-1.34 19 -0.68 19 0 19 C-0.04125 17.96875 -0.0825 16.9375 -0.125 15.875 C-0.00424851 12.13170373 0.64872018 9.46265453 2 6 C1.01 6.33 0.02 6.66 -1 7 C-1.04254356 5.00045254 -1.04080783 2.99958364 -1 1 C-0.67 0.67 -0.34 0.34 0 0 Z " fill="#F0873A" transform="translate(451,288)"/>
<path d="M0 0 C0.33 0.99 0.66 1.98 1 3 C0.01 4.485 0.01 4.485 -1 6 C-0.814375 6.825 -0.62875 7.65 -0.4375 8.5 C-0.293125 9.325 -0.14875 10.15 0 11 C-1.3125 12.8125 -1.3125 12.8125 -3 14 C-3.66 14 -4.32 14 -5 14 C-5 13.34 -5 12.68 -5 12 C-6.32 12 -7.64 12 -9 12 C-7.54718935 6.67302761 -3.91888622 3.63597198 0 0 Z " fill="#EB8940" transform="translate(287,266)"/>
<path d="M0 0 C0.99 0.33 1.98 0.66 3 1 C3.75566986 3.72041151 4.13838286 5.5018217 3.375 8.25 C2 10 2 10 -0.625 10.75 C-1.40875 10.8325 -2.1925 10.915 -3 11 C-5.125 4.25 -5.125 4.25 -4 2 C-3.34 2 -2.68 2 -2 2 C-2 2.99 -2 3.98 -2 5 C-1.34 3.35 -0.68 1.7 0 0 Z " fill="#F58532" transform="translate(426,142)"/>
<path d="M0 0 C0 0.66 0 1.32 0 2 C-0.66386719 2.23074219 -1.32773438 2.46148437 -2.01171875 2.69921875 C-7.81713902 4.79256009 -7.81713902 4.79256009 -12.5 8.6875 C-16.21589879 12.12470638 -20.09260216 11.89518179 -25 12 C-22.77264682 9.53672089 -20.64835747 8.15864556 -17.65625 6.73828125 C-16.82222656 6.34189453 -15.98820313 5.94550781 -15.12890625 5.53710938 C-13.82759766 4.93092773 -13.82759766 4.93092773 -12.5 4.3125 C-11.63246094 3.89677734 -10.76492187 3.48105469 -9.87109375 3.05273438 C-3.38465979 0 -3.38465979 0 0 0 Z " fill="#72AF5F" transform="translate(149,57)"/>
<path d="M0 0 C0.66 1.32 1.32 2.64 2 4 C1.3503125 4.7425 1.3503125 4.7425 0.6875 5.5 C-1.22219747 8.32918144 -2.19474419 11.06761083 -3.25390625 14.29296875 C-4 16 -4 16 -6 17 C-7.09166275 18.93330603 -7.09166275 18.93330603 -8 21 C-8.33 21.66 -8.66 22.32 -9 23 C-9.66 23 -10.32 23 -11 23 C-9.44347945 17.6462535 -7.0182491 12.99849053 -4.375 8.125 C-3.95476562 7.34125 -3.53453125 6.5575 -3.1015625 5.75 C-2.0718978 3.83107943 -1.03652433 1.91522397 0 0 Z " fill="#E58A3F" transform="translate(266,297)"/>
<path d="M0 0 C1.10844919 3.32534757 0.84454356 5.62182575 0 9 C-0.66 9 -1.32 9 -2 9 C-1.96519531 9.62648438 -1.93039062 10.25296875 -1.89453125 10.8984375 C-1.86746094 11.71570313 -1.84039062 12.53296875 -1.8125 13.375 C-1.77769531 14.18710937 -1.74289062 14.99921875 -1.70703125 15.8359375 C-1.80371094 16.55007813 -1.90039062 17.26421875 -2 18 C-2.99 18.66 -3.98 19.32 -5 20 C-5.33 20.99 -5.66 21.98 -6 23 C-6.66 23 -7.32 23 -8 23 C-8.33 23.99 -8.66 24.98 -9 26 C-10 24 -10 24 -9.30322266 21.89282227 C-8.9272998 21.04260498 -8.55137695 20.1923877 -8.1640625 19.31640625 C-7.75929688 18.38892578 -7.35453125 17.46144531 -6.9375 16.50585938 C-6.504375 15.53455078 -6.07125 14.56324219 -5.625 13.5625 C-4.78297158 11.64752325 -3.94178843 9.73217455 -3.1015625 7.81640625 C-2.72338379 6.96506104 -2.34520508 6.11371582 -1.95556641 5.23657227 C-0.92111482 2.89989271 -0.92111482 2.89989271 0 0 Z " fill="#E58C45" transform="translate(429,292)"/>
<path d="M0 0 C0.33 0 0.66 0 1 0 C1.02694851 1.95825873 1.04637218 3.91662226 1.0625 5.875 C1.07410156 6.96554687 1.08570313 8.05609375 1.09765625 9.1796875 C1 12 1 12 0 14 C-0.06950541 15.54023996 -0.08452357 17.08334988 -0.0625 18.625 C-0.04896484 19.85089844 -0.04896484 19.85089844 -0.03515625 21.1015625 C-0.02355469 21.72804688 -0.01195312 22.35453125 0 23 C-0.66 23 -1.32 23 -2 23 C-2 24.65 -2 26.3 -2 28 C-2.99 28.33 -3.98 28.66 -5 29 C-4.83564453 28.12214844 -4.83564453 28.12214844 -4.66796875 27.2265625 C-2.99544065 18.17043477 -1.49934532 9.08603264 0 0 Z " fill="#E68846" transform="translate(438,253)"/>
<path d="M0 0 C1.32 0.33 2.64 0.66 4 1 C4 2.65 4 4.3 4 6 C5.65 6 7.3 6 9 6 C9 8.97 9 11.94 9 15 C9.66 15 10.32 15 11 15 C10.67 16.32 10.34 17.64 10 19 C8.32626249 16.21251481 6.66223733 13.41935573 5 10.625 C4.28457031 9.43390625 4.28457031 9.43390625 3.5546875 8.21875 C3.10351562 7.45820313 2.65234375 6.69765625 2.1875 5.9140625 C1.76855469 5.2123291 1.34960938 4.5105957 0.91796875 3.78759766 C0 2 0 2 0 0 Z " fill="#E78844" transform="translate(409,128)"/>
<path d="M0 0 C0 3.71946442 -0.88871542 4.40514236 -3.3125 7.125 C-4.23482422 8.18074219 -4.23482422 8.18074219 -5.17578125 9.2578125 C-7 11 -7 11 -10 12 C-10 9.69 -10 7.38 -10 5 C-7.09399739 3.74335022 -5.20395416 3 -2 3 C-2 2.34 -2 1.68 -2 1 C-1.34 0.67 -0.68 0.34 0 0 Z " fill="#70AF59" transform="translate(196,406)"/>
<path d="M0 0 C1.32297922 3.96893765 0.29829783 5.83880664 -0.9375 9.8125 C-3.15323141 17.35507982 -3.43684201 24.1247094 -3 32 C-3.66 32 -4.32 32 -5 32 C-5.33706931 22.16256984 -5.02149686 13.49613298 -2 4 C-2.66 3.67 -3.32 3.34 -4 3 C-2.68 2.01 -1.36 1.02 0 0 Z " fill="#72AB5D" transform="translate(262,199)"/>
<path d="M0 0 C0 3 0 3 -1.875 5.1875 C-4 7 -4 7 -6 7 C-6.33 7.99 -6.66 8.98 -7 10 C-7.99 10.495 -7.99 10.495 -9 11 C-8.67 11.66 -8.34 12.32 -8 13 C-12.455 14.485 -12.455 14.485 -17 16 C-12.04989131 9.7120241 -6.2821957 4.92962331 0 0 Z " fill="#71AE5D" transform="translate(91,90)"/>
<path d="M0 0 C0.66 0.33 1.32 0.66 2 1 C2.3125 3.6875 2.3125 3.6875 2 7 C-0.3125 9.5 -0.3125 9.5 -3 12 C-4.79320824 15.16645474 -4.79320824 15.16645474 -6 18 C-6.99 18 -7.98 18 -9 18 C-6.03 12.06 -3.06 6.12 0 0 Z " fill="#6FAD5D" transform="translate(195,349)"/>
<path d="M0 0 C0.144375 0.639375 0.28875 1.27875 0.4375 1.9375 C0.81007181 3.97545146 0.81007181 3.97545146 2 5 C2.30232139 7.87205324 2.37392386 9.43911421 0.75 11.875 C-1 13 -1 13 -3.1875 12.6875 C-3.785625 12.460625 -4.38375 12.23375 -5 12 C-3.68938409 7.76570244 -2.05643741 3.92592596 0 0 Z " fill="#EB8841" transform="translate(364,177)"/>
<path d="M0 0 C-0.33 0.99 -0.66 1.98 -1 3 C-3.68926304 3.78937074 -6.25943164 4.40194691 -9 4.9375 C-14.049001 6.00524387 -18.74907144 7.07991497 -23.4375 9.3125 C-24.613125 9.869375 -25.78875 10.42625 -27 11 C-27.66 10.67 -28.32 10.34 -29 10 C-21.93140325 5.94179386 -14.97655772 3.72810492 -7.125 1.796875 C-0.07843137 0 -0.07843137 0 0 0 Z " fill="#E38B4A" transform="translate(318,255)"/>
<path d="M0 0 C0.66 0.33 1.32 0.66 2 1 C-1.3 7.6 -4.6 14.2 -8 21 C-9.2077558 17.37673261 -8.54311128 16.35853631 -7 13 C-7.66 13 -8.32 13 -9 13 C-8.67 12.01 -8.34 11.02 -8 10 C-6.68 10 -5.36 10 -4 10 C-4 8.68 -4 7.36 -4 6 C-3.34 6 -2.68 6 -2 6 C-2 4.68 -2 3.36 -2 2 C-1.34 2 -0.68 2 0 2 C0 1.34 0 0.68 0 0 Z " fill="#E08A4D" transform="translate(349,176)"/>
<path d="M0 0 C2.02045442 0.60183749 4.02111039 1.27306096 6 2 C7 4 7 4 6.00390625 7.2578125 C5.53110016 8.5497052 5.05028031 9.83868638 4.5625 11.125 C4.31951172 11.78371094 4.07652344 12.44242188 3.82617188 13.12109375 C3.22421679 14.74991338 2.61297588 16.37529575 2 18 C0.82367645 14.0731552 1.40165767 11.03881072 2 7 C1.67 6.34 1.34 5.68 1 5 C1.33 4.34 1.66 3.68 2 3 C1.01 2.34 0.02 1.68 -1 1 C-0.67 0.67 -0.34 0.34 0 0 Z " fill="#E88A49" transform="translate(393,135)"/>
<path d="M0 0 C0.66 0 1.32 0 2 0 C2.0825 0.61875 2.165 1.2375 2.25 1.875 C3.23825442 4.67505419 4.40359985 4.74113932 7 6 C8.25 8.125 8.25 8.125 9 10 C3.25 9.125 3.25 9.125 1 8 C0.26924352 5.6859378 -0.40138258 3.35171131 -1 1 C-0.67 0.67 -0.34 0.34 0 0 Z " fill="#F48632" transform="translate(394,102)"/>
<path d="M0 0 C1 2 1 2 0.8125 4 C0 6 0 6 -2.0625 7.25 C-3.0215625 7.62125 -3.0215625 7.62125 -4 8 C-4 9.32 -4 10.64 -4 12 C-4.66 12 -5.32 12 -6 12 C-6 12.66 -6 13.32 -6 14 C-7.98 14.33 -9.96 14.66 -12 15 C-8.19695186 9.80789528 -4.23841458 4.84390238 0 0 Z " fill="#E68944" transform="translate(403,343)"/>
<path d="M0 0 C-0.90500296 1.77682248 -1.8245025 3.54626591 -2.75 5.3125 C-3.26046875 6.29863281 -3.7709375 7.28476563 -4.296875 8.30078125 C-5.99126147 10.98615063 -7.22149254 12.48494771 -10 14 C-10.99 13.67 -11.98 13.34 -13 13 C-12.34 12.67 -11.68 12.34 -11 12 C-10.67 11.01 -10.34 10.02 -10 9 C-8.68 9 -7.36 9 -6 9 C-6.061875 8.236875 -6.12375 7.47375 -6.1875 6.6875 C-6 4 -6 4 -4.5 2.1875 C-4.005 1.795625 -3.51 1.40375 -3 1 C-3.99 0.67 -4.98 0.34 -6 0 C-3 -1 -3 -1 0 0 Z " fill="#EE8943" transform="translate(327,225)"/>
<path d="M0 0 C0.33 0.99 0.66 1.98 1 3 C-1.54782974 5.97246802 -4.45340883 7.41535288 -8 9 C-8.66 9 -9.32 9 -10 9 C-10.33 9.99 -10.66 10.98 -11 12 C-14.3 12 -17.6 12 -21 12 C-18.02270883 10.51135441 -15.2919057 9.36465275 -12.1875 8.25 C-7.16455177 6.28546914 -3.88131586 3.712563 0 0 Z " fill="#6FA85C" transform="translate(177,378)"/>
<path d="M0 0 C0.99 0.66 1.98 1.32 3 2 C-1 6 -5 10 -9 14 C-9.33 13.01 -9.66 12.02 -10 11 C-8.625 9.5 -8.625 9.5 -7 8 C-6.34 8 -5.68 8 -5 8 C-4.67 6.35 -4.34 4.7 -4 3 C-2.68 3 -1.36 3 0 3 C0 2.01 0 1.02 0 0 Z " fill="#70AF5D" transform="translate(112,134)"/>
<path d="M0 0 C0.33 0 0.66 0 1 0 C1.33 2.64 1.66 5.28 2 8 C1.401875 8.20625 0.80375 8.4125 0.1875 8.625 C-2.81018767 10.50926082 -3.61361776 12.81132084 -5 16 C-5.66 16 -6.32 16 -7 16 C-5.35433477 10.31497465 -2.70967216 5.23318364 0 0 Z " fill="#E18C45" transform="translate(316,118)"/>
<path d="M0 0 C0.33 0 0.66 0 1 0 C1 1.65 1 3.3 1 5 C1.66 5.33 2.32 5.66 3 6 C2.360625 6.61875 1.72125 7.2375 1.0625 7.875 C-1.03883584 9.82597612 -1.03883584 9.82597612 -2 12 C-2.66 12 -3.32 12 -4 12 C-4 12.66 -4 13.32 -4 14 C-4.66 14 -5.32 14 -6 14 C-4.50829734 9.0276578 -2.39542583 4.58154261 0 0 Z " fill="#E38943" transform="translate(202,425)"/>
<path d="M0 0 C1.34201604 2.68403208 0.70405525 3.7430131 -0.1875 6.5625 C-0.42855469 7.36816406 -0.66960937 8.17382812 -0.91796875 9.00390625 C-2 11 -2 11 -4.11328125 11.77734375 C-5.04720703 11.88755859 -5.04720703 11.88755859 -6 12 C-6.2165625 12.928125 -6.2165625 12.928125 -6.4375 13.875 C-7 16 -7 16 -8 18 C-8.66 17.67 -9.32 17.34 -10 17 C-8.5228313 14.35303306 -7.04337118 11.70739435 -5.5625 9.0625 C-5.14162109 8.30775391 -4.72074219 7.55300781 -4.28710938 6.77539062 C-3.68286133 5.69741211 -3.68286133 5.69741211 -3.06640625 4.59765625 C-2.69459229 3.93258057 -2.32277832 3.26750488 -1.93969727 2.58227539 C-1 1 -1 1 0 0 Z " fill="#71AB5B" transform="translate(263,148)"/>
<path d="M0 0 C0.33 0.99 0.66 1.98 1 3 C0.67 3.66 0.34 4.32 0 5 C-0.66 5 -1.32 5 -2 5 C-2.28875 5.598125 -2.5775 6.19625 -2.875 6.8125 C-4 9 -4 9 -6 12 C-6.66 12 -7.32 12 -8 12 C-8 12.99 -8 13.98 -8 15 C-8.99 15.33 -9.98 15.66 -11 16 C-9.55049595 11.64352355 -7.32252888 8.68242711 -4.375 5.1875 C-3.55773437 4.21167969 -2.74046875 3.23585938 -1.8984375 2.23046875 C-1.27195312 1.49441406 -0.64546875 0.75835937 0 0 Z " fill="#72AC61" transform="translate(68,112)"/>
<path d="M0 0 C0.66 0.66 1.32 1.32 2 2 C1.67 2.598125 1.34 3.19625 1 3.8125 C-0.20787988 6.05386471 -0.20787988 6.05386471 0 9 C-2.31 10.32 -4.62 11.64 -7 13 C-5.35821735 8.22390502 -2.73453298 4.20617096 0 0 Z " fill="#6FAD5B" transform="translate(277,125)"/>
<path d="M0 0 C2 1 2 1 4 4 C4.99 3.67 5.98 3.34 7 3 C6.67 3.99 6.34 4.98 6 6 C5.34 6 4.68 6 4 6 C4 9.63 4 13.26 4 17 C3.67 17 3.34 17 3 17 C2.49622232 14.73000175 1.99709981 12.45896997 1.5 10.1875 C1.08234375 8.29064453 1.08234375 8.29064453 0.65625 6.35546875 C0 3 0 3 0 0 Z " fill="#E98741" transform="translate(433,182)"/>
<path d="M0 0 C0.33 0.66 0.66 1.32 1 2 C-0.21484375 4.6015625 -0.21484375 4.6015625 -1.9375 7.625 C-2.50339844 8.62789062 -3.06929688 9.63078125 -3.65234375 10.6640625 C-4.09707031 11.43492187 -4.54179687 12.20578125 -5 13 C-6.4606285 10.35261084 -7 9.10551666 -7 6 C-5.35 5.67 -3.7 5.34 -2 5 C-2.33 4.01 -2.66 3.02 -3 2 C-2.01 1.34 -1.02 0.68 0 0 Z " fill="#6FAE5B" transform="translate(297,127)"/>
<path d="M0 0 C0.33 0.66 0.66 1.32 1 2 C-0.32 2.33 -1.64 2.66 -3 3 C-2.67 4.98 -2.34 6.96 -2 9 C-3.65 9 -5.3 9 -7 9 C-7 8.34 -7 7.68 -7 7 C-7.99 6.67 -8.98 6.34 -10 6 C-6.7 4.02 -3.4 2.04 0 0 Z " fill="#6FAD5B" transform="translate(122,69)"/>
<path d="M0 0 C0.99 0.99 1.98 1.98 3 3 C0.71461395 7.08963819 -1.95706926 10.46362104 -5 14 C-5.33 13.34 -5.66 12.68 -6 12 C-4.78515625 9.1796875 -4.78515625 9.1796875 -3.0625 5.875 C-2.49660156 4.77929688 -1.93070313 3.68359375 -1.34765625 2.5546875 C-0.90292969 1.71164062 -0.45820313 0.86859375 0 0 Z " fill="#71AC5E" transform="translate(229,283)"/>
<path d="M0 0 C1.32 0 2.64 0 4 0 C4 0.99 4 1.98 4 3 C4.66 3 5.32 3 6 3 C4.25 8.75 4.25 8.75 2 11 C2.04125 10.05125 2.0825 9.1025 2.125 8.125 C2.34973818 4.89755144 2.34973818 4.89755144 0 3 C0 2.01 0 1.02 0 0 Z " fill="#6FAE5B" transform="translate(218,352)"/>
<path d="M0 0 C2.475 0.99 2.475 0.99 5 2 C3.02 4.64 1.04 7.28 -1 10 C-2.35055201 7.29889598 -2 4.99210994 -2 2 C-1.34 1.34 -0.68 0.68 0 0 Z " fill="#6DAE57" transform="translate(267,66)"/>
<path d="M0 0 C0.66 0.33 1.32 0.66 2 1 C2 1.66 2 2.32 2 3 C2.99 3 3.98 3 5 3 C5.99 4.98 6.98 6.96 8 9 C3.40693504 7.5140084 0.56430755 5.14985318 -3 2 C-2.01 1.34 -1.02 0.68 0 0 Z " fill="#6DAB5A" transform="translate(94,398)"/>
<path d="M0 0 C1.29065057 3.8719517 0.22324098 6.44232601 -0.9375 10.1875 C-1.23043945 11.16879883 -1.23043945 11.16879883 -1.52929688 12.16992188 C-2.01182563 13.78227407 -2.50490205 15.39146289 -3 17 C-3.66 17 -4.32 17 -5 17 C-5 15.68 -5 14.36 -5 13 C-4.34 13 -3.68 13 -3 13 C-3.061875 11.96875 -3.12375 10.9375 -3.1875 9.875 C-2.98864405 5.76531027 -2.05532197 3.51117504 0 0 Z " fill="#E58B49" transform="translate(454,294)"/>
<path d="M0 0 C1.20628008 2.33214148 2.1654738 4.49642139 3 7 C0.39417629 7.93065133 -0.64198224 8.14917407 -3.25 7.0625 C-3.8275 6.711875 -4.405 6.36125 -5 6 C-3.35 4.02 -1.7 2.04 0 0 Z " fill="#EA8740" transform="translate(331,240)"/>
<path d="M0 0 C1.32 0 2.64 0 4 0 C4 0.66 4 1.32 4 2 C-0.28951387 5.48523002 -3.7087241 5.43371114 -9 5 C-9.66 4.34 -10.32 3.68 -11 3 C-7.37 3 -3.74 3 0 3 C0 2.01 0 1.02 0 0 Z " fill="#E18F49" transform="translate(288,220)"/>
<path d="M0 0 C0.99 0.33 1.98 0.66 3 1 C2.07544441 2.508013 1.1349253 4.00624917 0.1875 5.5 C-0.33457031 6.3353125 -0.85664062 7.170625 -1.39453125 8.03125 C-1.92433594 8.6809375 -2.45414062 9.330625 -3 10 C-3.99 10 -4.98 10 -6 10 C-6 9.34 -6 8.68 -6 8 C-5.34 8 -4.68 8 -4 8 C-4 7.01 -4 6.02 -4 5 C-2 3 -2 3 0 2 C0 1.34 0 0.68 0 0 Z " fill="#70AE5C" transform="translate(95,153)"/>
<path d="M0 0 C0.33 0 0.66 0 1 0 C1.60992886 5.03191313 -0.45643143 7.90310712 -3 12 C-3.6802367 13.32646156 -4.35492261 14.65608877 -5 16 C-5.66 16 -6.32 16 -7 16 C-5.35433477 10.31497465 -2.70967216 5.23318364 0 0 Z " fill="#DD894F" transform="translate(340,143)"/>
<path d="M0 0 C1.98 0.66 3.96 1.32 6 2 C1.70709382 6.75286041 1.70709382 6.75286041 -2 7 C-2.66 6.34 -3.32 5.68 -4 5 C-4 4.01 -4 3.02 -4 2 C-2.02 2.66 -0.04 3.32 2 4 C1.34 2.68 0.68 1.36 0 0 Z " fill="#EA8E3F" transform="translate(356,425)"/>
<path d="M0 0 C0.66 0 1.32 0 2 0 C0.35433477 5.68502535 -2.29032784 10.76681636 -5 16 C-6.20153575 12.02634963 -5.637386 9.84785711 -4 6 C-2.4375 4.3125 -2.4375 4.3125 -1 3 C-0.67 2.01 -0.34 1.02 0 0 Z " fill="#E08853" transform="translate(249,389)"/>
<path d="M0 0 C0.33 0.66 0.66 1.32 1 2 C-1.31 4.64 -3.62 7.28 -6 10 C-6.99 9.34 -7.98 8.68 -9 8 C-7.625 6.5 -7.625 6.5 -6 5 C-5.34 5 -4.68 5 -4 5 C-4 4.34 -4 3.68 -4 3 C-2 1.375 -2 1.375 0 0 Z " fill="#6EAB5A" transform="translate(149,113)"/>
<path d="M0 0 C5.47932789 1.54545146 10.11429181 4.15543212 15 7 C14.34 7.66 13.68 8.32 13 9 C10.83061859 7.69181533 8.6644848 6.37874076 6.5 5.0625 C5.87996094 4.68931641 5.25992187 4.31613281 4.62109375 3.93164062 C3.06370003 2.9818016 1.5296725 1.99386689 0 1 C0 0.67 0 0.34 0 0 Z " fill="#D39962" transform="translate(342,66)"/>
<path d="M0 0 C0.66 0 1.32 0 2 0 C-0.89066059 9.59453303 -0.89066059 9.59453303 -4 13 C-4.33 11.35 -4.66 9.7 -5 8 C-4.01 8 -3.02 8 -2 8 C-2.33 6.02 -2.66 4.04 -3 2 C-2.01 2.33 -1.02 2.66 0 3 C0 2.01 0 1.02 0 0 Z " fill="#E4894B" transform="translate(355,162)"/>
<path d="M0 0 C0.33 0 0.66 0 1 0 C0.26086957 8.86956522 0.26086957 8.86956522 -3 12 C-3.66 12 -4.32 12 -5 12 C-3.68938409 7.76570244 -2.05643741 3.92592596 0 0 Z " fill="#E08A45" transform="translate(234,360)"/>
<path d="M0 0 C0.33 0 0.66 0 1 0 C1.50130606 5.26371362 0.31168629 7.9090934 -3 12 C-3.66 12 -4.32 12 -5 12 C-3.68938409 7.76570244 -2.05643741 3.92592596 0 0 Z " fill="#E18A48" transform="translate(250,328)"/>
<path d="M0 0 C0.33 0 0.66 0 1 0 C1.64165788 5.26159459 0.20577001 7.68592849 -2.90625 11.6796875 C-3.2671875 12.11539063 -3.628125 12.55109375 -4 13 C-4.33 12.34 -4.66 11.68 -5 11 C-4.00390625 8.3984375 -4.00390625 8.3984375 -2.5625 5.375 C-2.08941406 4.37210938 -1.61632812 3.36921875 -1.12890625 2.3359375 C-0.75636719 1.56507813 -0.38382812 0.79421875 0 0 Z " fill="#E38748" transform="translate(330,163)"/>
<path d="M0 0 C0.99 0.33 1.98 0.66 3 1 C1.84414715 4.91211733 0.64465038 7.8745041 -2 11 C-2.05399736 9.54207116 -2.09279177 8.08357288 -2.125 6.625 C-2.15980469 5.40683594 -2.15980469 5.40683594 -2.1953125 4.1640625 C-2 2 -2 2 0 0 Z " fill="#E68845" transform="translate(271,341)"/>
<path d="M0 0 C0.66 0.33 1.32 0.66 2 1 C0.35 4.3 -1.3 7.6 -3 11 C-3.33 11 -3.66 11 -4 11 C-4 8.36 -4 5.72 -4 3 C-2.68 2.67 -1.36 2.34 0 2 C0 1.34 0 0.68 0 0 Z " fill="#E88A47" transform="translate(293,300)"/>
<path d="M0 0 C0.66 0.33 1.32 0.66 2 1 C1.979375 2.134375 1.95875 3.26875 1.9375 4.4375 C1.9293241 9.00782755 2.41308664 13.47238262 3 18 C0.3124205 12.99906093 -1.32126888 7.62369583 -0.625 1.9375 C-0.41875 1.298125 -0.2125 0.65875 0 0 Z " fill="#6FB059" transform="translate(234,218)"/>
<path d="M0 0 C0.99 0.33 1.98 0.66 3 1 C2.67 2.65 2.34 4.3 2 6 C2.99 6.33 3.98 6.66 5 7 C4.01 8.485 4.01 8.485 3 10 C1.35 7.69 -0.3 5.38 -2 3 C-1 1 -1 1 0 0 Z " fill="#6EAC58" transform="translate(76,378)"/>
<path d="M0 0 C0.66 0.33 1.32 0.66 2 1 C0.35 3.64 -1.3 6.28 -3 9 C-5 6 -5 6 -5 2 C-3.35 2 -1.7 2 0 2 C0 1.34 0 0.68 0 0 Z " fill="#E98A44" transform="translate(431,352)"/>
<path d="M0 0 C1 2 1 2 0.75 4 C0 6 0 6 -3 8 C-4.32 7.67 -5.64 7.34 -7 7 C-4.69 4.69 -2.38 2.38 0 0 Z " fill="#E5894A" transform="translate(325,247)"/>
<path d="M0 0 C-2.95074112 1.56779517 -5.87119234 2.70074575 -9.0625 3.6875 C-9.91972656 3.95949219 -10.77695313 4.23148438 -11.66015625 4.51171875 C-14 5 -14 5 -17 4 C-11.88643979 1.01708988 -5.89517358 -0.36844835 0 0 Z " fill="#73AB5E" transform="translate(137,242)"/>
<path d="M0 0 C1.32 0 2.64 0 4 0 C3.34 2.31 2.68 4.62 2 7 C0.68 6.67 -0.64 6.34 -2 6 C-1.49396008 3.83125748 -1.00016187 2.00032373 0 0 Z " fill="#6DAF58" transform="translate(262,192)"/>
<path d="M0 0 C0.33 0 0.66 0 1 0 C1.25 5.625 1.25 5.625 -1 9 C-1.66 9 -2.32 9 -3 9 C-3 9.99 -3 10.98 -3 12 C-3.66 12 -4.32 12 -5 12 C-3.68938409 7.76570244 -2.05643741 3.92592596 0 0 Z " fill="#E38A44" transform="translate(292,167)"/>
<path d="M0 0 C0.99 0 1.98 0 3 0 C3 0.66 3 1.32 3 2 C3.66 2 4.32 2 5 2 C5 2.99 5 3.98 5 5 C6.32 5.33 7.64 5.66 9 6 C8.67 6.66 8.34 7.32 8 8 C4.63820226 6.55922954 2.40843732 4.75249979 0 2 C0 1.34 0 0.68 0 0 Z " fill="#F38433" transform="translate(381,92)"/>
<path d="M0 0 C0.99 0 1.98 0 3 0 C3.53229326 1.26607607 4.05044544 2.53810412 4.5625 3.8125 C4.85253906 4.52019531 5.14257812 5.22789062 5.44140625 5.95703125 C6 8 6 8 5 11 C4.16151196 9.54462432 3.32936066 8.08559627 2.5 6.625 C1.80390625 5.40683594 1.80390625 5.40683594 1.09375 4.1640625 C0 2 0 2 0 0 Z " fill="#71AA60" transform="translate(65,363)"/>
<path d="M0 0 C0.625 1.875 0.625 1.875 1 4 C0.34 4.66 -0.32 5.32 -1 6 C-1.6425235 8.06874034 -1.6425235 8.06874034 -2 10 C-3.32 10.33 -4.64 10.66 -6 11 C-4.54955729 6.89041233 -2.48889248 3.56741255 0 0 Z " fill="#E38845" transform="translate(414,326)"/>
<path d="M0 0 C1 3 1 3 0.3125 5.5625 C-1.16086774 8.29875437 -2.13522966 8.94958421 -5 10 C-3.66511872 6.40608886 -2.03977277 3.24509304 0 0 Z " fill="#E38B43" transform="translate(276,280)"/>
<path d="M0 0 C0 3.58912412 -0.66436554 4.10857029 -3 6.6875 C-3.556875 7.31011719 -4.11375 7.93273437 -4.6875 8.57421875 C-5.120625 9.04472656 -5.55375 9.51523438 -6 10 C-6.33 9.34 -6.66 8.68 -7 8 C-4.83201268 2.5229794 -4.83201268 2.5229794 -1.8125 0.625 C-1.214375 0.41875 -0.61625 0.2125 0 0 Z " fill="#72AA60" transform="translate(191,202)"/>
<path d="M0 0 C0.82638376 2.89234315 1 4.88742431 1 8 C-0.32 8.33 -1.64 8.66 -3 9 C-2.44271087 5.65626525 -1.64826111 2.96687001 0 0 Z " fill="#6EB059" transform="translate(243,183)"/>
<path d="M0 0 C0.66 0.33 1.32 0.66 2 1 C-0.475 5.455 -0.475 5.455 -3 10 C-4 6 -4 6 -3.1875 3.875 C-2 2 -2 2 0 0 Z " fill="#71AD5D" transform="translate(309,104)"/>
<path d="M0 0 C0.66 0.33 1.32 0.66 2 1 C0.71372289 2.17260611 -0.57919783 3.3379283 -1.875 4.5 C-2.59429687 5.1496875 -3.31359375 5.799375 -4.0546875 6.46875 C-6 8 -6 8 -8 8 C-6.70989008 5.12206249 -5.42638194 3.03816083 -3 1 C-2.01 0.67 -1.02 0.34 0 0 Z " fill="#71AD5E" transform="translate(178,217)"/>
<path d="M0 0 C0.33 0.66 0.66 1.32 1 2 C-0.21484375 4.6015625 -0.21484375 4.6015625 -1.9375 7.625 C-2.78634766 9.12933594 -2.78634766 9.12933594 -3.65234375 10.6640625 C-4.09707031 11.43492187 -4.54179687 12.20578125 -5 13 C-5.625 11.125 -5.625 11.125 -6 9 C-5.34 8.34 -4.68 7.68 -4 7 C-3.67 6.175 -3.34 5.35 -3 4.5 C-2 2 -2 2 0 0 Z " fill="#73AC5D" transform="translate(287,146)"/>
<path d="M0 0 C3.465 1.98 3.465 1.98 7 4 C7 4.66 7 5.32 7 6 C5.35 6.66 3.7 7.32 2 8 C2 6.35 2 4.7 2 3 C1.34 2.67 0.68 2.34 0 2 C0 1.34 0 0.68 0 0 Z " fill="#71AE61" transform="translate(282,49)"/>
<path d="M0 0 C0.33 0 0.66 0 1 0 C1.125 5.75 1.125 5.75 0 8 C-0.66 8 -1.32 8 -2 8 C-2 8.66 -2 9.32 -2 10 C-2.66 10 -3.32 10 -4 10 C-2.8905928 6.51329166 -1.73662334 3.22515763 0 0 Z " fill="#E18A4A" transform="translate(207,415)"/>
<path d="M0 0 C0.99 0 1.98 0 3 0 C1.84414715 3.91211733 0.64465038 6.8745041 -2 10 C-2.25 3.375 -2.25 3.375 0 0 Z " fill="#70AD5D" transform="translate(230,337)"/>
<path d="M0 0 C0.66 0 1.32 0 2 0 C1.39301257 4.12751449 -0.03810791 7.3321148 -2 11 C-2.99 10.67 -3.98 10.34 -5 10 C-4.34 8.68 -3.68 7.36 -3 6 C-2.34 6 -1.68 6 -1 6 C-0.67 4.02 -0.34 2.04 0 0 Z " fill="#6EAD5A" transform="translate(249,300)"/>
<path d="M0 0 C3.39417765 3.12621626 5.6062718 5.56541027 7 10 C6.01 9.67 5.02 9.34 4 9 C3.67 8.01 3.34 7.02 3 6 C0.99983534 4.79117904 0.99983534 4.79117904 -1 4 C-0.67 2.68 -0.34 1.36 0 0 Z " fill="#E4884A" transform="translate(419,128)"/>
<path d="M0 0 C0.66 0 1.32 0 2 0 C0.68938409 4.23429756 -0.94356259 8.07407404 -3 12 C-3.6875 10.375 -3.6875 10.375 -4 8 C-2.625 4.875 -2.625 4.875 -1 2 C-0.67 1.34 -0.34 0.68 0 0 Z " fill="#71AD60" transform="translate(215,368)"/>
<path d="M0 0 C0.33 0 0.66 0 1 0 C1.185625 1.7015625 1.185625 1.7015625 1.375 3.4375 C1.684375 5.2009375 1.684375 5.2009375 2 7 C2.66 7.33 3.32 7.66 4 8 C3.01 8.33 2.02 8.66 1 9 C1 8.34 1 7.68 1 7 C0.01 6.67 -0.98 6.34 -2 6 C-1.34 4.02 -0.68 2.04 0 0 Z " fill="#6FAF58" transform="translate(82,199)"/>
<path d="M0 0 C0.66 0.99 1.32 1.98 2 3 C1.25 5.4375 1.25 5.4375 0 8 C-0.37125 8.763125 -0.7425 9.52625 -1.125 10.3125 C-1.558125 11.1478125 -1.558125 11.1478125 -2 12 C-3.43088528 9.13822943 -2.59991697 7.06624227 -2 4 C-1.34 4 -0.68 4 0 4 C0 2.68 0 1.36 0 0 Z " fill="#E88848" transform="translate(360,150)"/>
<path d="M0 0 C0.66 1.32 1.32 2.64 2 4 C1.01 4.495 1.01 4.495 0 5 C-0.33 5.99 -0.66 6.98 -1 8 C-1.66 8 -2.32 8 -3 8 C-3 8.99 -3 9.98 -3 11 C-3.66 10.67 -4.32 10.34 -5 10 C-3.35 6.7 -1.7 3.4 0 0 Z " fill="#DE8A45" transform="translate(306,139)"/>
<path d="M0 0 C1.875 0.1875 1.875 0.1875 4 1 C5.25 3.5625 5.25 3.5625 6 6 C4.35 5.67 2.7 5.34 1 5 C0.67 3.35 0.34 1.7 0 0 Z " fill="#EF8C34" transform="translate(373,85)"/>
<path d="M0 0 C0.77321882 2.98241547 1.41196203 5.97580475 2 9 C1.01 9.33 0.02 9.66 -1 10 C-1.33 10.66 -1.66 11.32 -2 12 C-1.85831863 10.56208484 -1.71148957 9.1246763 -1.5625 7.6875 C-1.48128906 6.88699219 -1.40007813 6.08648437 -1.31640625 5.26171875 C-1 3 -1 3 0 0 Z " fill="#6EB059" transform="translate(60,259)"/>
<path d="M0 0 C0.33 0.99 0.66 1.98 1 3 C1.99 3.33 2.98 3.66 4 4 C2.68 4.99 1.36 5.98 0 7 C-0.66 5.35 -1.32 3.7 -2 2 C-1.34 1.34 -0.68 0.68 0 0 Z " fill="#71AC5A" transform="translate(51,224)"/>
<path d="M0 0 C1.98 0 3.96 0 6 0 C6 0.99 6 1.98 6 3 C6.99 3.33 7.98 3.66 9 4 C8.01 4.495 8.01 4.495 7 5 C4.5249829 3.88568235 2.32116581 2.41849022 0 1 C0 0.67 0 0.34 0 0 Z " fill="#6FAB5C" transform="translate(110,412)"/>
<path d="M0 0 C0.66 0 1.32 0 2 0 C2 0.66 2 1.32 2 2 C2.66 2.33 3.32 2.66 4 3 C2.35 4.32 0.7 5.64 -1 7 C-1.33 5.68 -1.66 4.36 -2 3 C-1.34 3 -0.68 3 0 3 C0 2.01 0 1.02 0 0 Z " fill="#E68947" transform="translate(397,393)"/>
<path d="M0 0 C0.33 0 0.66 0 1 0 C1 1.65 1 3.3 1 5 C1.66 5.33 2.32 5.66 3 6 C1.02 6.66 -0.96 7.32 -3 8 C-1.125 2.25 -1.125 2.25 0 0 Z " fill="#EA8840" transform="translate(354,198)"/>
<path d="M0 0 C0.99 0 1.98 0 3 0 C2.01 2.97 1.02 5.94 0 9 C-0.33 9 -0.66 9 -1 9 C-0.67 6.03 -0.34 3.06 0 0 Z " fill="#EA8844" transform="translate(302,194)"/>
<path d="M0 0 C0.99 0.33 1.98 0.66 3 1 C2.1875 3.4375 2.1875 3.4375 1 6 C0.01 6.33 -0.98 6.66 -2 7 C-2 3.89448334 -1.4606285 2.64738916 0 0 Z " fill="#74AB5E" transform="translate(300,89)"/>
<path d="M0 0 C-2.39763185 2.39763185 -3.33273498 2.34280586 -6.625 2.625 C-7.44226563 2.69976562 -8.25953125 2.77453125 -9.1015625 2.8515625 C-9.72804687 2.90054688 -10.35453125 2.94953125 -11 3 C-7.74003139 -0.25996861 -4.40088745 -1.46696248 0 0 Z " fill="#76B160" transform="translate(168,51)"/>
<path d="M0 0 C0.99 0 1.98 0 3 0 C1.25 5.75 1.25 5.75 -1 8 C-1.125 2.25 -1.125 2.25 0 0 Z " fill="#EB8842" transform="translate(310,178)"/>
<path d="M0 0 C1 3 1 3 0 6 C-2.0625 7.1875 -2.0625 7.1875 -4 8 C-3.40138258 5.64828869 -2.73075648 3.3140622 -2 1 C-1.34 0.67 -0.68 0.34 0 0 Z " fill="#EB8942" transform="translate(384,177)"/>
<path d="M0 0 C0.66 0.33 1.32 0.66 2 1 C1.0479279 2.00596297 0.08812654 3.00461563 -0.875 4 C-1.40867187 4.556875 -1.94234375 5.11375 -2.4921875 5.6875 C-4 7 -4 7 -6 7 C-6 6.34 -6 5.68 -6 5 C-5.34 5 -4.68 5 -4 5 C-3.71125 4.360625 -3.4225 3.72125 -3.125 3.0625 C-2 1 -2 1 0 0 Z " fill="#72AA61" transform="translate(128,120)"/>
<path d="M0 0 C1.98 1.65 3.96 3.3 6 5 C4 5 2 5 0 5 C-0.66 4.34 -1.32 3.68 -2 3 C-1.34 2.01 -0.68 1.02 0 0 Z " fill="#6EAE5A" transform="translate(100,363)"/>
<path d="M0 0 C0.33 0 0.66 0 1 0 C1 1.65 1 3.3 1 5 C0.01 5.495 0.01 5.495 -1 6 C-1.33 6.99 -1.66 7.98 -2 9 C-2.66 9 -3.32 9 -4 9 C-2.94124926 5.59687262 -1.99097846 2.98646769 0 0 Z " fill="#71B05D" transform="translate(219,303)"/>
<path d="M0 0 C2.50298434 2.93828597 3.46930939 5.17902761 4 9 C3.34 9 2.68 9 2 9 C0.14223235 5.86501708 -0.20140476 3.62528568 0 0 Z " fill="#6FAB5B" transform="translate(261,237)"/>
<path d="M0 0 C2.475 0.99 2.475 0.99 5 2 C5 2.66 5 3.32 5 4 C5.99 4.33 6.98 4.66 8 5 C7.01 5.495 7.01 5.495 6 6 C3.4375 4.75 3.4375 4.75 1 3 C0.67 2.01 0.34 1.02 0 0 Z " fill="#E08A4B" transform="translate(302,233)"/>
<path d="M0 0 C1.32 0 2.64 0 4 0 C3.3125 1.9375 3.3125 1.9375 2 4 C-0.625 4.75 -0.625 4.75 -3 5 C-1.75 2.5 -1.75 2.5 0 0 Z " fill="#E48A4B" transform="translate(317,234)"/>
<path d="M0 0 C0.66 0 1.32 0 2 0 C0.90931332 3.77545388 0.0916909 6.47043472 -3 9 C-2.5020163 5.26512223 -2.12508244 3.18762365 0 0 Z " fill="#73AB60" transform="translate(301,118)"/>
<path d="M0 0 C2.475 0.99 2.475 0.99 5 2 C3.68 2.33 2.36 2.66 1 3 C1 3.66 1 4.32 1 5 C0.01 5 -0.98 5 -2 5 C-1.34 3.35 -0.68 1.7 0 0 Z " fill="#DD8A49" transform="translate(325,101)"/>
<path d="M0 0 C3.53600465 1.91135386 5.78972846 3.62642766 8 7 C6.02 6.34 4.04 5.68 2 5 C2 4.01 2 3.02 2 2 C1.34 2 0.68 2 0 2 C0 1.34 0 0.68 0 0 Z " fill="#DE8B48" transform="translate(384,92)"/>
</svg>
